:FULLY-SPECIFIED
:FORCE-ALL-JOINTS-BE-3DOF
:DEGREES
476
root 3.49754 16.0706 -7.16624 6.12524 56.3786 -6.69934
lfemur -40.1443 1.0174 -17.6931
ltibia 52.6025 0 0
lfoot -20.8985 -3.81365 0
ltoes 11.7284 0 0
rfemur -33.7719 -2.13043 11.5159
rtibia 61.3029 0 0
rfoot 4.2547 -4.09026 0
rtoes -30.474 0 0
lowerback 4.08601 0.130393 2.03197
upperback 0.232123 0.28179 1.17637
thorax -1.98483 0.1397 0.0650739
lowerneck -8.03896 -5.90711 0.986685
upperneck 3.86813 -8.04581 1.10315
head 2.74615 -3.94881 -0.259007
lclavicle -2.64566e-14 -3.77206e-15 0
lhumerus -45.9906 -28.6261 108.671
lradius 54.7547 0 0
lwrist 3.63327 0 0
lhand -8.47573 -3.46731 0
lfingers 7.12502 0 0
lthumb 17.398 24.9966 0
rclavicle -2.64566e-14 -3.77206e-15 0
rhumerus -47.6376 12.9017 -92.1224
rradius 72.0817 0 0
rwrist 19.7611 0 0
rhand -18.6436 -21.9897 0
rfingers 7.12502 0 0
rthumb 7.64527 -771.708 0
477
root 3.57746 16.0956 -7.11073 6.16809 57.7737 -6.34934
lfemur -39.4415 0.00966829 -18.0329
ltibia 52.1554 0 0
lfoot -20.9971 -3.87466 0
ltoes 12.1405 0 0
rfemur -34.9432 -1.82332 11.4862
rtibia 62.4522 0 0
rfoot 4.74126 -3.49635 0
rtoes -29.6045 0 0
lowerback 4.09712 0.0919777 1.84436
upperback 0.221015 0.221931 1.14294
thorax -2.00509 0.110939 0.138861
lowerneck -8.07718 -6.07728 0.85988
upperneck 4.01873 -8.26594 1.14219
head 2.80965 -4.05654 -0.240108
lclavicle -2.58113e-14 -3.96236e-15 0
lhumerus -46.1645 -28.8068 108.976
lradius 54.8151 0 0
lwrist 3.63666 0 0
lhand -7.64238 -3.23441 0
lfingers 7.12502 0 0
lthumb 18.1998 25.1667 0
rclavicle -2.58113e-14 -3.96236e-15 0
rhumerus -47.5695 13.5281 -92.379
rradius 72.3634 0 0
rwrist 20.1264 0 0
rhand -18.2796 -21.9079 0
rfingers 7.12502 0 0
rthumb 7.99661 -771.616 0
478
root 3.65737 16.1205 -7.05523 6.21093 59.1688 -5.99933
lfemur -38.7387 -0.998061 -18.3726
ltibia 51.7083 0 0
lfoot -21.0957 -3.93567 0
ltoes 12.5527 0 0
rfemur -36.1145 -1.5162 11.4565
rtibia 63.6015 0 0
rfoot 5.22782 -2.90245 0
rtoes -28.735 0 0
lowerback 4.10824 0.0535624 1.65675
upperback 0.209906 0.162072 1.10951
thorax -2.02536 0.0821776 0.212648
lowerneck -8.1154 -6.24745 0.733076
upperneck 4.16933 -8.48608 1.18123
head 2.87316 -4.16427 -0.22121
lclavicle -2.5166e-14 -4.15266e-15 0
lhumerus -46.3383 -28.9874 109.28
lradius 54.8755 0 0
lwrist 3.64006 0 0
lhand -6.80903 -3.00151 0
lfingers 7.12502 0 0
lthumb 19.0017 25.3368 0
rclavicle -2.5166e-14 -4.15266e-15 0
rhumerus -47.5014 14.1545 -92.6356
rradius 72.6451 0 0
rwrist 20.4917 0 0
rhand -17.9156 -21.8261 0
rfingers 7.12502 0 0
rthumb 8.34795 -771.523 0
479
root 3.73729 16.1455 -6.99972 6.25378 60.5638 -5.64933
lfemur -38.0359 -2.00579 -18.7124
ltibia 51.2613 0 0
lfoot -21.1943 -3.99667 0
ltoes 12.9648 0 0
rfemur -37.2858 -1.20909 11.4267
rtibia 64.7508 0 0
rfoot 5.71438 -2.30854 0
rtoes -27.8654 0 0
lowerback 4.11935 0.0151471 1.46913
upperback 0.198798 0.102214 1.07607
thorax -2.04562 0.0534161 0.286434
lowerneck -8.15362 -6.41761 0.606271
upperneck 4.31993 -8.70621 1.22026
head 2.93667 -4.27201 -0.202312
lclavicle -2.45207e-14 -4.34296e-15 0
lhumerus -46.5121 -29.1681 109.585
lradius 54.936 0 0
lwrist 3.64345 0 0
lhand -5.97568 -2.76861 0
lfingers 7.12502 0 0
lthumb 19.8035 25.5068 0
rclavicle -2.45207e-14 -4.34296e-15 0
rhumerus -47.4333 14.781 -92.8921
rradius 72.9269 0 0
rwrist 20.8571 0 0
rhand -17.5516 -21.7442 0
rfingers 7.12502 0 0
rthumb 8.69928 -771.43 0
480
root 3.8172 16.1704 -6.94421 6.29662 61.9589 -5.29932
lfemur -37.3331 -3.01352 -19.0522
ltibia 50.8142 0 0
lfoot -21.2929 -4.05768 0
ltoes 13.3769 0 0
rfemur -38.4571 -0.901973 11.397
rtibia 65.9001 0 0
rfoot 6.20094 -1.71464 0
rtoes -26.9959 0 0
lowerback 4.13046 -0.0232682 1.28152
upperback 0.18769 0.0423548 1.04264
thorax -2.06589 0.0246547 0.360221
lowerneck -8.19184 -6.58778 0.479467
upperneck 4.47053 -8.92635 1.2593
head 3.00017 -4.37974 -0.183414
lclavicle -2.38754e-14 -4.53326e-15 0
lhumerus -46.686 -29.3487 109.889
lradius 54.9964 0 0
lwrist 3.64685 0 0
lhand -5.14233 -2.53571 0
lfingers 7.12502 0 0
lthumb 20.6053 25.6769 0
rclavicle -2.38754e-14 -4.53326e-15 0
rhumerus -47.3652 15.4074 -93.1487
rradius 73.2086 0 0
rwrist 21.2224 0 0
rhand -17.1876 -21.6624 0
rfingers 7.12502 0 0
rthumb 9.05062 -771.338 0
481
root 3.89711 16.1954 -6.8887 6.33946 63.354 -4.94931
lfemur -36.6302 -4.02125 -19.3919
ltibia 50.3671 0 0
lfoot -21.3915 -4.11868 0
ltoes 13.7891 0 0
rfemur -39.6284 -0.594859 11.3673
rtibia 67.0495 0 0
rfoot 6.6875 -1.12073 0
rtoes -26.1264 0 0
lowerback 4.14158 -0.0616835 1.0939
upperback 0.176582 -0.0175039 1.00921
thorax -2.08615 -0.00410673 0.434008
lowerneck -8.23005 -6.75794 0.352663
upperneck 4.62113 -9.14648 1.29834
head 3.06368 -4.48748 -0.164515
lclavicle -2.32301e-14 -4.72356e-15 0
lhumerus -46.8598 -29.5293 110.193
lradius 55.0568 0 0
lwrist 3.65024 0 0
lhand -4.30899 -2.30281 0
lfingers 7.12502 0 0
lthumb 21.4071 25.847 0
rclavicle -2.32301e-14 -4.72356e-15 0
rhumerus -47.2971 16.0338 -93.4053
rradius 73.4903 0 0
rwrist 21.5877 0 0
rhand -16.8236 -21.5806 0
rfingers 7.12502 0 0
rthumb 9.40196 -771.245 0
482
root 3.97703 16.2203 -6.8332 6.38231 64.7491 -4.59931
lfemur -35.9274 -5.02898 -19.7317
ltibia 49.92 0 0
lfoot -21.4901 -4.17969 0
ltoes 14.2012 0 0
rfemur -40.7997 -0.287744 11.3376
rtibia 68.1988 0 0
rfoot 7.17406 -0.526824 0
rtoes -25.2569 0 0
lowerback 4.15269 -0.100099 0.906288
upperback 0.165473 -0.0773627 0.975774
thorax -2.10642 -0.0328682 0.507795
lowerneck -8.26827 -6.92811 0.225858
upperneck 4.77173 -9.36662 1.33738
head 3.12719 -4.59521 -0.145617
lclavicle -2.25848e-14 -4.91386e-15 0
lhumerus -47.0336 -29.71 110.498
lradius 55.1172 0 0
lwrist 3.65363 0 0
lhand -3.47564 -2.06991 0
lfingers 7.12502 0 0
lthumb 22.209 26.0171 0
rclavicle -2.25848e-14 -4.91386e-15 0
rhumerus -47.229 16.6603 -93.6619
rradius 73.7721 0 0
rwrist 21.9531 0 0
rhand -16.4596 -21.4988 0
rfingers 7.12502 0 0
rthumb 9.7533 -771.152 0
483
root 4.05694 16.2453 -6.77769 6.42515 66.1442 -4.2493
lfemur -35.2246 -6.03671 -20.0715
ltibia 49.4729 0 0
lfoot -21.5888 -4.24069 0
ltoes 14.6133 0 0
rfemur -41.971 0.0193712 11.3079
rtibia 69.3481 0 0
rfoot 7.66061 0.0670815 0
rtoes -24.3874 0 0
lowerback 4.1638 -0.138514 0.718674
upperback 0.154365 -0.137221 0.942342
thorax -2.12668 -0.0616296 0.581582
lowerneck -8.30649 -7.09827 0.0990539
upperneck 4.92234 -9.58675 1.37642
head 3.1907 -4.70295 -0.126719
lclavicle -2.19395e-14 -5.10416e-15 0
lhumerus -47.2074 -29.8906 110.802
lradius 55.1777 0 0
lwrist 3.65703 0 0
lhand -2.64229 -1.83701 0
lfingers 7.12502 0 0
lthumb 23.0108 26.1871 0
rclavicle -2.19395e-14 -5.10416e-15 0
rhumerus -47.1609 17.2867 -93.9185
rradius 74.0538 0 0
rwrist 22.3184 0 0
rhand -16.0956 -21.417 0
rfingers 7.12502 0 0
rthumb 10.1046 -771.06 0
